<?xml version="1.0" encoding="utf-8"?>
<!-- Generator: Adobe Illustrator 23.0.6, SVG Export Plug-In . SVG Version: 6.00 Build 0)  -->
<svg version="1.1" id="Capa_1" xmlns="http://www.w3.org/2000/svg" xmlns:xlink="http://www.w3.org/1999/xlink" x="0px" y="0px"
	 viewBox="0 0 42 42" style="enable-background:new 0 0 42 42;" xml:space="preserve">
<style type="text/css">
	.st0{fill:#0071ce;}
</style>
<g>
	<path class="st0" d="M40.2,15.6c0-7.2-5.9-13-13-13h-1.5c-0.4,0-0.8,0.3-0.8,0.8v9.2c0,0.4,0.3,0.8,0.8,0.8c0.4,0,0.8-0.3,0.8-0.8
		V4.1h0.8c6.1,0,11.1,4.8,11.5,10.7H11V9.5c0-2.1-1.7-3.8-3.8-3.8H2.6C2.2,5.7,1.8,6,1.8,6.4c0,0.4,0.3,0.8,0.8,0.8h4.6
		c1.3,0,2.3,1,2.3,2.3v6.1c0,7.2,5.9,13,13,13h4.6C34.3,28.7,40.2,22.8,40.2,15.6z M27.1,27.1h-4.6c-6.1,0-11.1-4.8-11.5-10.7h27.6
		C38.2,22.4,33.2,27.1,27.1,27.1z"/>
	<path class="st0" d="M17.2,30.2c-2.5,0-4.6,2.1-4.6,4.6c0,2.5,2.1,4.6,4.6,4.6c2.5,0,4.6-2.1,4.6-4.6
		C21.8,32.3,19.7,30.2,17.2,30.2z M17.2,37.9c-1.7,0-3.1-1.4-3.1-3.1c0-1.7,1.4-3.1,3.1-3.1c1.7,0,3.1,1.4,3.1,3.1
		C20.2,36.5,18.9,37.9,17.2,37.9z"/>
	<path class="st0" d="M32.5,30.2c-2.5,0-4.6,2.1-4.6,4.6c0,2.5,2.1,4.6,4.6,4.6c2.5,0,4.6-2.1,4.6-4.6
		C37.1,32.3,35.1,30.2,32.5,30.2z M32.5,37.9c-1.7,0-3.1-1.4-3.1-3.1c0-1.7,1.4-3.1,3.1-3.1c1.7,0,3.1,1.4,3.1,3.1
		C35.6,36.5,34.2,37.9,32.5,37.9z"/>
</g>
</svg>
