<?xml version="1.0" encoding="utf-8"?>
<!-- Generator: Adobe Illustrator 23.0.6, SVG Export Plug-In . SVG Version: 6.00 Build 0)  -->
<svg version="1.1" id="Capa_1" xmlns="http://www.w3.org/2000/svg" xmlns:xlink="http://www.w3.org/1999/xlink" x="0px" y="0px"
	 viewBox="0 0 42 42" style="enable-background:new 0 0 42 42;" xml:space="preserve">
<style type="text/css">
	.st0{fill:none;stroke:#0071ce;stroke-width:1.3;stroke-linecap:round;stroke-linejoin:round;stroke-miterlimit:10;}
</style>
<g>
	<g>
		<rect x="3" y="25" class="st0" width="36" height="9"/>
		<path class="st0" d="M37,19H5c-1.1,0-2,0.9-2,2v4h36v-4C39,19.9,38.1,19,37,19z"/>
		<path class="st0" d="M16.8,14h-4.7C11,14,10,15,10,16.2V19h9v-2.8C19,15,18,14,16.8,14z"/>
		<path class="st0" d="M29.8,14h-4.7C24,14,23,15,23,16.2V19h9v-2.8C32,15,31,14,29.8,14z"/>
		<path class="st0" d="M35,19v-9c0-1.1-0.9-2-2-2H9c-1.1,0-2,0.9-2,2v9"/>
	</g>
</g>
</svg>
