<?xml version="1.0" encoding="utf-8"?>
<!-- Generator: Adobe Illustrator 23.0.6, SVG Export Plug-In . SVG Version: 6.00 Build 0)  -->
<svg version="1.1" id="Capa_1" xmlns="http://www.w3.org/2000/svg" xmlns:xlink="http://www.w3.org/1999/xlink" x="0px" y="0px"
	 viewBox="0 0 42 42" style="enable-background:new 0 0 42 42;" xml:space="preserve">
<style type="text/css">
	.st0{fill:#0071ce;}
</style>
<g>
	<path class="st0" d="M32.8,32.7c-4.4,0-8-3.6-8-8s3.6-8,8-8s8,3.6,8,8S37.2,32.7,32.8,32.7z M32.8,17.8c-3.8,0-7,3.1-7,7s3.1,7,7,7
		s7-3.1,7-7S36.7,17.8,32.8,17.8z"/>
	<path class="st0" d="M9.2,32.7c-4.4,0-8-3.6-8-8s3.6-8,8-8s8,3.6,8,8S13.6,32.7,9.2,32.7z M9.2,17.8c-3.8,0-7,3.1-7,7s3.1,7,7,7
		s7-3.1,7-7S13,17.8,9.2,17.8z"/>
	<path class="st0" d="M32.8,25.2c-0.2,0-0.4-0.1-0.5-0.3l-5.5-14.6h-2.8c-0.3,0-0.5-0.2-0.5-0.5c0-0.3,0.2-0.5,0.5-0.5h3.1
		c0.2,0,0.4,0.1,0.5,0.3l5.6,14.9c0.1,0.3,0,0.5-0.3,0.6C32.9,25.2,32.9,25.2,32.8,25.2z"/>
	<path class="st0" d="M15.4,11.5h-5c-0.3,0-0.5-0.2-0.5-0.5c0-0.3,0.2-0.5,0.5-0.5h5c0.3,0,0.5,0.2,0.5,0.5
		C15.9,11.3,15.7,11.5,15.4,11.5z"/>
	<path class="st0" d="M20.4,25.2C20.4,25.2,20.4,25.2,20.4,25.2H9.2c-0.2,0-0.3-0.1-0.4-0.2c-0.1-0.1-0.1-0.3,0-0.5l5-11l-1.2-2.3
		c-0.1-0.2,0-0.5,0.2-0.7c0.2-0.1,0.5,0,0.7,0.2l1.2,2.2h14.1c0.2,0,0.4,0.1,0.4,0.3c0.1,0.2,0.1,0.4,0,0.5L20.8,25c0,0,0,0,0,0
		c-0.1,0.1-0.2,0.1-0.3,0.2C20.5,25.2,20.4,25.2,20.4,25.2L20.4,25.2L20.4,25.2C20.4,25.2,20.4,25.2,20.4,25.2z M9.9,24.2h9.6
		l-5.2-9.6L9.9,24.2z M15.1,14l5.3,9.8l7.2-9.8H15.1z"/>
</g>
</svg>
