<?xml version="1.0" encoding="utf-8"?>
<!-- Generator: Adobe Illustrator 23.0.6, SVG Export Plug-In . SVG Version: 6.00 Build 0)  -->
<svg version="1.1" id="Capa_1" xmlns="http://www.w3.org/2000/svg" xmlns:xlink="http://www.w3.org/1999/xlink" x="0px" y="0px"
	 viewBox="0 0 42 42" style="enable-background:new 0 0 42 42;" xml:space="preserve">
<style type="text/css">
	.st0{fill:#0071ce;}
</style>
<g>
	<path class="st0" d="M23.9,32.7c-0.3,0-0.6-0.3-0.6-0.6v-0.8c0-0.3,0.3-0.6,0.6-0.6c0.3,0,0.6,0.3,0.6,0.6v0.8
		C24.5,32.4,24.3,32.7,23.9,32.7z"/>
	<path class="st0" d="M18.1,32.7c-0.3,0-0.6-0.3-0.6-0.6v-0.8c0-0.3,0.3-0.6,0.6-0.6s0.6,0.3,0.6,0.6v0.8
		C18.7,32.4,18.4,32.7,18.1,32.7z"/>
	<path class="st0" d="M36.7,28.7c-0.3,0-0.6-0.3-0.6-0.6V8.8c0-0.1-0.1-0.1-0.1-0.1H6C6,8.7,5.9,8.8,5.9,8.8v19.2
		c0,0.3-0.3,0.6-0.6,0.6s-0.6-0.3-0.6-0.6V8.8c0-0.7,0.6-1.3,1.3-1.3h30c0.7,0,1.3,0.6,1.3,1.3v19.2C37.3,28.4,37,28.7,36.7,28.7z"
		/>
	<path class="st0" d="M40.4,31.9H23.9c-0.3,0-0.6-0.3-0.6-0.6s0.3-0.6,0.6-0.6h14.9l-2.3-2.1h-9.2c-0.3,0-0.6-0.3-0.6-0.6
		c0-0.3,0.3-0.6,0.6-0.6h9.4c0.1,0,0.3,0.1,0.4,0.2l3.7,3.3c0.2,0.2,0.3,0.4,0.2,0.7C40.9,31.8,40.6,31.9,40.4,31.9z"/>
	<path class="st0" d="M18.1,31.9H1.6c-0.3,0-0.5-0.2-0.6-0.4c-0.1-0.2,0-0.5,0.2-0.7l3.7-3.3c0.1-0.1,0.3-0.2,0.4-0.2h22
		c0.3,0,0.6,0.3,0.6,0.6c0,0.3-0.3,0.6-0.6,0.6H5.5l-2.3,2.1h14.9c0.3,0,0.6,0.3,0.6,0.6S18.4,31.9,18.1,31.9z"/>
	<path class="st0" d="M39.7,34.5H2.3c-0.7,0-1.3-0.6-1.3-1.3v-1.8c0-0.3,0.3-0.6,0.6-0.6h0.7c0.3,0,0.6,0.3,0.6,0.6S2.7,32,2.3,32
		H2.2v1.2c0,0.1,0.1,0.1,0.1,0.1h37.3c0.1,0,0.1-0.1,0.1-0.1V32h-0.1c-0.3,0-0.6-0.3-0.6-0.6s0.3-0.6,0.6-0.6h0.7
		c0.3,0,0.6,0.3,0.6,0.6v1.8C41,33.9,40.4,34.5,39.7,34.5z"/>
</g>
</svg>
