<?xml version="1.0" encoding="utf-8"?>
<!-- Generator: Adobe Illustrator 23.0.6, SVG Export Plug-In . SVG Version: 6.00 Build 0)  -->
<svg version="1.1" id="Capa_1" xmlns="http://www.w3.org/2000/svg" xmlns:xlink="http://www.w3.org/1999/xlink" x="0px" y="0px"
	 viewBox="0 0 42 42" style="enable-background:new 0 0 42 42;" xml:space="preserve">
<style type="text/css">
	.st0{fill:#0071ce;}
</style>
<g>
	<g>
		<g>
			<path class="st0" d="M28.3,27.9l-1.2-15.6h0.5c2.6,0,4.7,2,5,4.6l0.5,5.6c0.2,2.7-1.7,5-4.3,5.3L28.3,27.9z M27.9,13.1L29,27
				c2-0.5,3.4-2.3,3.3-4.4L31.8,17C31.6,14.9,29.9,13.3,27.9,13.1z"/>
			<path class="st0" d="M27.6,12.7c0.1,0,0.2,0,0.3,0c0,0,0,0,0,0c-0.1,0-0.2,0-0.3,0.1c-0.1,0.1-0.1,0.2-0.1,0.3l0-0.4H27.6
				 M29.3,13.1c1.6,0.6,2.7,2.1,2.9,3.9l0.5,5.6c0.2,2.2-1.3,4.2-3.4,4.8c2.1-0.6,3.6-2.6,3.4-4.8l-0.5-5.6
				C32,15.2,30.9,13.7,29.3,13.1 M28.6,27.1c0,0.1,0.1,0.2,0.2,0.3c0.1,0,0.1,0.1,0.2,0.1c0,0,0,0,0.1,0c-0.1,0-0.3,0.1-0.4,0.1
				L28.6,27.1 M27.6,12.3h-0.5l1.2,15.6l0.4-0.1c2.6-0.3,4.6-2.7,4.3-5.3l-0.5-5.6C32.4,14.3,30.2,12.3,27.6,12.3L27.6,12.3z M29,27
				l-1.1-13.9c2,0.1,3.7,1.8,3.9,3.8l0.5,5.6C32.4,24.7,31,26.6,29,27L29,27z"/>
		</g>
	</g>
	<g>
		<g>
			<path class="st0" d="M25.4,37.1H13.1c-1.1,0-2.2-0.5-3-1.3c-0.8-0.8-1.1-2-1-3.1l1.5-15.9L6.7,11c-0.2-0.3-0.2-0.6,0-0.9
				c0.2-0.3,0.4-0.4,0.8-0.4l3.7,0.1c0.2-1.6,1.6-2.8,3.2-2.8h9.7c1.6,0,3,1.2,3.2,2.8c3.7-0.1,7.1,2.7,7.5,6.3l0.7,7.1
				c0.4,3.8-2.2,7.1-6,7.7v2.3C29.5,35.3,27.7,37.1,25.4,37.1z M7.4,10.4C7.4,10.4,7.3,10.4,7.4,10.4c-0.1,0.1-0.1,0.1-0.1,0.1
				l4.1,6.1L9.8,32.8c-0.1,0.9,0.2,1.8,0.8,2.5c0.6,0.7,1.5,1.1,2.4,1.1h12.3c1.8,0,3.3-1.5,3.3-3.3v-3l0.6-0.1
				c3.4-0.4,5.8-3.4,5.4-6.8l-0.7-7.1c-0.3-3.2-3.4-5.8-6.8-5.6l0,0l-0.7,0v-0.4c0-1.3-1.1-2.4-2.4-2.4h-9.7c-1.3,0-2.4,1.1-2.4,2.4
				v0.4L7.4,10.4C7.4,10.4,7.4,10.4,7.4,10.4z"/>
			<path class="st0" d="M24.1,7.3C24.1,7.3,24.1,7.3,24.1,7.3C24.1,7.3,24.1,7.3,24.1,7.3 M14.3,7.3C14.3,7.3,14.3,7.3,14.3,7.3
				C14.3,7.3,14.3,7.3,14.3,7.3 M14.3,7.3C14.3,7.3,14.3,7.3,14.3,7.3C14.3,7.3,14.3,7.3,14.3,7.3 M24.1,7.3
				C24.1,7.3,24.1,7.3,24.1,7.3C24.1,7.3,24.1,7.3,24.1,7.3 M14.3,7.3C14.3,7.3,14.3,7.3,14.3,7.3C14.3,7.3,14.3,7.3,14.3,7.3
				 M24.1,7.3C24.1,7.3,24.1,7.3,24.1,7.3C24.1,7.3,24.1,7.3,24.1,7.3 M14.3,7.3C14.3,7.3,14.3,7.3,14.3,7.3
				C14.3,7.3,14.3,7.3,14.3,7.3 M24.1,7.3C24.1,7.3,24.1,7.3,24.1,7.3C24.1,7.3,24.1,7.3,24.1,7.3 M14.3,7.3
				C14.3,7.3,14.3,7.3,14.3,7.3C14.3,7.3,14.3,7.3,14.3,7.3 M24.1,7.3C24.1,7.3,24.1,7.3,24.1,7.3C24.1,7.3,24.1,7.3,24.1,7.3
				 M14.3,7.3C14.3,7.3,14.3,7.3,14.3,7.3C14.3,7.3,14.3,7.3,14.3,7.3 M24.1,7.3L24.1,7.3C24.1,7.3,24.1,7.3,24.1,7.3 M14.3,7.3
				L14.3,7.3L14.3,7.3 M12.9,7.7c-0.7,0.4-1.2,1.1-1.4,1.9C11.7,8.7,12.2,8.1,12.9,7.7 M25.9,7.9c0.5,0.4,0.8,1,1,1.6
				C26.7,8.9,26.3,8.3,25.9,7.9 M26.9,9.8c0,0.2,0.2,0.3,0.4,0.3c0,0-0.1,0-0.1,0c0,0-0.1,0-0.1,0l-0.2,0v0
				C26.9,10,26.9,9.9,26.9,9.8 M11.5,9.8c0,0.1,0,0.2,0,0.3l-0.4,0C11.3,10.1,11.5,9.9,11.5,9.8 M7.4,10L9.4,10L7.4,10
				C7.4,10,7.4,10,7.4,10 M27.4,10.1c3.5,0,6.5,2.7,6.9,6l0.7,7.1c0,0.1,0,0.3,0,0.4c0-0.1,0-0.3,0-0.4l-0.7-7.1
				C34,12.8,30.9,10.1,27.4,10.1C27.4,10.1,27.4,10.1,27.4,10.1C27.4,10.1,27.4,10.1,27.4,10.1 M7.1,10.1c0,0-0.1,0.1-0.1,0.1
				c0,0,0,0,0,0c0,0,0,0,0,0C7,10.2,7,10.1,7.1,10.1 M7,10.7C7,10.7,7,10.7,7,10.7l4,6L9.9,28.2L11,16.9c0-0.1,0-0.2-0.1-0.3L7,10.7
				C7,10.7,7,10.7,7,10.7 M29.7,30.3c-0.1,0-0.2,0-0.3,0.1c-0.2,0-0.3,0.2-0.3,0.4v-0.3l0.2,0C29.4,30.4,29.6,30.4,29.7,30.3
				 M29.1,33.1c0,2-1.6,3.6-3.6,3.6H13.1h12.3C27.4,36.7,29.1,35.1,29.1,33.1 M10.3,35.5C10.4,35.5,10.4,35.5,10.3,35.5
				c0.1,0.1,0.2,0.2,0.3,0.3C10.5,35.7,10.5,35.6,10.3,35.5C10.4,35.5,10.4,35.5,10.3,35.5 M24.1,6.9h-9.7c-1.6,0-3,1.2-3.2,2.8
				L7.4,9.6c0,0,0,0,0,0c-0.3,0-0.6,0.2-0.8,0.4c-0.2,0.3-0.1,0.6,0,0.9l3.9,5.9L9.1,32.7c-0.1,1.1,0.3,2.3,1,3.1
				c0.8,0.8,1.9,1.3,3,1.3h12.3c2.2,0,4-1.8,4-4v-2.3c3.7-0.5,6.4-3.9,6-7.7L34.7,16c-0.4-3.5-3.6-6.3-7.3-6.3c-0.1,0-0.1,0-0.2,0
				C27,8.1,25.7,6.9,24.1,6.9L24.1,6.9z M11.9,10.5v-0.4c0-1.3,1.1-2.4,2.4-2.4h9.7c1.3,0,2.4,1.1,2.4,2.4v0.4l0.7,0l0,0
				c0.1,0,0.2,0,0.3,0c3.3,0,6.2,2.5,6.5,5.6l0.7,7.1c0.3,3.4-2,6.4-5.4,6.8l-0.6,0.1v3c0,1.8-1.5,3.3-3.3,3.3H13.1
				c-0.9,0-1.8-0.4-2.4-1.1c-0.6-0.7-0.9-1.6-0.8-2.5l1.6-16.1l-4.1-6.1c0,0,0-0.1,0-0.1c0,0,0,0,0.1,0c0,0,0,0,0,0L11.9,10.5
				L11.9,10.5z"/>
		</g>
	</g>
	<g>
		<g>
			<path class="st0" d="M19.2,31.7c-1.6,0-3-1.3-3-3V16.7c0-1.6,1.3-3,3-3c1.6,0,3,1.3,3,3v12.1C22.2,30.4,20.9,31.7,19.2,31.7z
				 M19.2,14.5c-1.2,0-2.2,1-2.2,2.2v12.1c0,1.2,1,2.2,2.2,2.2c1.2,0,2.2-1,2.2-2.2V16.7C21.4,15.5,20.4,14.5,19.2,14.5z"/>
			<path class="st0" d="M16.6,16.7v12.1c0,1.4,1.2,2.6,2.6,2.6c1.4,0,2.6-1.2,2.6-2.6c0,1.4-1.2,2.6-2.6,2.6c-1.4,0-2.6-1.2-2.6-2.6
				V16.7 M19.2,13.7c-1.6,0-3,1.3-3,3v12.1c0,1.6,1.3,3,3,3c1.6,0,3-1.3,3-3V16.7C22.2,15.1,20.9,13.7,19.2,13.7L19.2,13.7z
				 M19.2,31C18,31,17,30,17,28.8V16.7c0-1.2,1-2.2,2.2-2.2c1.2,0,2.2,1,2.2,2.2v12.1C21.4,30,20.4,31,19.2,31L19.2,31z"/>
		</g>
	</g>
	<g>
		<g>
			<path class="st0" d="M23,7.7H16V7.3c0-1.3,1.1-2.4,2.4-2.4h2.1c1.3,0,2.4,1.1,2.4,2.4V7.7z M16.9,6.9h5.3
				c-0.2-0.7-0.8-1.2-1.6-1.2h-2.1C17.7,5.6,17,6.2,16.9,6.9z"/>
			<path class="st0" d="M18.5,5.3C18.5,5.3,18.5,5.3,18.5,5.3C18.5,5.3,18.5,5.3,18.5,5.3 M20.6,5.3C20.6,5.3,20.6,5.3,20.6,5.3
				C20.6,5.3,20.6,5.3,20.6,5.3 M18.4,5.3C18.4,5.3,18.4,5.3,18.4,5.3C18.4,5.3,18.4,5.3,18.4,5.3 M20.6,5.3
				C20.6,5.3,20.6,5.3,20.6,5.3C20.6,5.3,20.6,5.3,20.6,5.3 M18.4,5.3C18.4,5.3,18.4,5.3,18.4,5.3C18.4,5.3,18.4,5.3,18.4,5.3
				 M20.6,5.3C20.6,5.3,20.6,5.3,20.6,5.3C20.6,5.3,20.6,5.3,20.6,5.3 M18.4,5.3C18.4,5.3,18.4,5.3,18.4,5.3
				C18.4,5.3,18.4,5.3,18.4,5.3 M20.6,5.3C20.6,5.3,20.6,5.3,20.6,5.3C20.6,5.3,20.6,5.3,20.6,5.3 M16.5,6.6c0,0.1,0,0.1-0.1,0.2
				c0,0.1,0,0.2,0.1,0.3c0.1,0.1,0.2,0.1,0.3,0.1h5.3c0.1,0,0.2-0.1,0.3-0.1c0.1-0.1,0.1-0.2,0.1-0.3c0-0.1,0-0.1,0-0.1
				c0.1,0.2,0.1,0.4,0.1,0.6h-6.1C16.4,7,16.5,6.8,16.5,6.6 M20.6,4.9h-2.1c-1.3,0-2.4,1.1-2.4,2.4v0.4H23V7.3
				C23,5.9,21.9,4.9,20.6,4.9L20.6,4.9z M16.9,6.9c0.2-0.7,0.8-1.2,1.6-1.2h2.1c0.8,0,1.4,0.5,1.6,1.2H16.9L16.9,6.9z"/>
		</g>
	</g>
	<g>
		<g>
			<path class="st0" d="M29.1,33.5c-0.2,0-0.3-0.1-0.4-0.3c-0.1-0.2,0-0.4,0.2-0.5l3-1.1c0.2-0.1,0.4,0,0.5,0.2
				c0.1,0.2,0,0.4-0.2,0.5l-3,1C29.2,33.5,29.1,33.5,29.1,33.5z"/>
			<path class="st0" d="M32.1,32L32.1,32l-3,1L32.1,32 M32.1,31.7c0,0-0.1,0-0.1,0l-3,1.1c-0.2,0.1-0.3,0.3-0.2,0.5
				c0.1,0.2,0.2,0.3,0.4,0.3c0,0,0.1,0,0.1,0l3-1c0.2-0.1,0.3-0.3,0.2-0.5C32.4,31.8,32.2,31.7,32.1,31.7L32.1,31.7z"/>
		</g>
	</g>
	<g>
		<g>
			<path class="st0" d="M16.6,25.2c-0.1,0-0.1,0-0.2-0.1c-0.2-0.1-0.2-0.4-0.1-0.5c0.4-0.6,1.5-1.6,3-1.1c1.4,0.5,2.3,0.1,2.3,0.1
				c0.2-0.1,0.4,0,0.5,0.2c0.1,0.2,0,0.4-0.2,0.5c0,0-1.1,0.5-2.8-0.1C17.8,23.8,17,25,17,25C16.9,25.1,16.8,25.2,16.6,25.2z"/>
			<path class="st0" d="M18.6,23.8c0.2,0,0.4,0,0.6,0.1c0,0,0,0,0,0c0,0,0,0,0,0C19,23.8,18.8,23.8,18.6,23.8 M21.8,24L21.8,24
				L21.8,24 M19.8,24c0.3,0.1,0.7,0.1,1,0.1c0.2,0,0.4,0,0.6,0c-0.2,0-0.4,0-0.6,0C20.4,24.1,20.1,24.1,19.8,24 M17.3,24.2
				c-0.4,0.3-0.6,0.6-0.7,0.7C16.8,24.6,17,24.4,17.3,24.2 M18.6,23.4c-1.1,0-1.9,0.7-2.2,1.2c-0.1,0.2-0.1,0.4,0.1,0.5
				c0.1,0,0.1,0.1,0.2,0.1c0.1,0,0.2-0.1,0.3-0.2c0,0,0.6-0.9,1.6-0.9c0.2,0,0.4,0,0.6,0.1c0.7,0.2,1.2,0.3,1.7,0.3
				c0.7,0,1.1-0.2,1.2-0.2c0.2-0.1,0.3-0.3,0.2-0.5c-0.1-0.1-0.2-0.2-0.4-0.2c0,0-0.1,0-0.1,0c0,0-0.3,0.1-0.9,0.1
				c-0.4,0-0.9-0.1-1.4-0.2C19.1,23.4,18.8,23.4,18.6,23.4L18.6,23.4z"/>
		</g>
	</g>
</g>
</svg>
