<?xml version="1.0" encoding="utf-8"?>
<!-- Generator: Adobe Illustrator 24.0.0, SVG Export Plug-In . SVG Version: 6.00 Build 0)  -->
<svg version="1.1" id="icon" xmlns="http://www.w3.org/2000/svg" xmlns:xlink="http://www.w3.org/1999/xlink" x="0px" y="0px"
	 viewBox="0 0 448 448" style="enable-background:new 0 0 448 448;" xml:space="preserve">
<style type="text/css">
	.st0{fill:#0071CE;}
</style>
<g>
	<path class="st0" d="M406.13,158.5h-27.26v-38.68c0-17.42-14.17-31.59-31.59-31.59h-99.02c-10.64,0-20.05,5.31-25.78,13.39
		c-5.73-8.09-15.14-13.39-25.78-13.39H97.68c-17.42,0-31.59,14.17-31.59,31.59v38.68H38.83c-12.65,0-22.93,10.29-22.93,22.93v173.61
		c0,3.21,2.6,5.82,5.81,5.82h70.27h261h70.27c3.21,0,5.81-2.61,5.81-5.82V181.44C429.06,168.79,418.77,158.5,406.13,158.5z
		 M248.26,99.86h99.02c11.01,0,19.97,8.96,19.97,19.97v38.96c-11.29,1.43-20.08,10.98-20.08,22.65v37.29H228.29v-4.22v-94.68
		C228.29,108.82,237.25,99.86,248.26,99.86z M347.17,230.36v38.56H97.79v-38.56H347.17z M97.79,280.55h249.37v68.68H97.79V280.55z
		 M97.68,99.86h99.01c11.01,0,19.97,8.96,19.97,19.97v94.68v4.22H97.79v-37.29c0-11.67-8.79-21.22-20.08-22.65v-38.96
		C77.72,108.82,86.68,99.86,97.68,99.86z M27.52,181.44c0-6.24,5.07-11.31,11.31-11.31h36.03c6.24,0,11.31,5.07,11.31,11.31v167.8
		H27.52V181.44z M417.44,349.24h-58.64v-167.8c0-6.24,5.07-11.31,11.31-11.31h36.02c6.24,0,11.31,5.07,11.31,11.31V349.24z"/>
	<path class="st0" d="M142.17,170.13h20.08c3.21,0,5.81-2.6,5.81-5.81c0-3.21-2.6-5.81-5.81-5.81h-20.08c-3.21,0-5.81,2.6-5.81,5.81
		C136.36,167.53,138.96,170.13,142.17,170.13z"/>
	<path class="st0" d="M282.71,170.13h20.08c3.21,0,5.81-2.6,5.81-5.81c0-3.21-2.6-5.81-5.81-5.81h-20.08c-3.21,0-5.81,2.6-5.81,5.81
		C276.9,167.53,279.5,170.13,282.71,170.13z"/>
</g>
</svg>
