<?xml version="1.0" encoding="utf-8"?>
<!-- Generator: Adobe Illustrator 23.0.6, SVG Export Plug-In . SVG Version: 6.00 Build 0)  -->
<svg version="1.1" id="Capa_1" xmlns="http://www.w3.org/2000/svg" xmlns:xlink="http://www.w3.org/1999/xlink" x="0px" y="0px"
	 viewBox="0 0 43 43" style="enable-background:new 0 0 43 43;" xml:space="preserve">
<style type="text/css">
	.st0{fill:#0071ce;}
</style>
<g>
	<path class="st0" d="M11.4,13.1c-2.2,0-4,1.8-4,4s1.8,4,4,4c2.2,0,4-1.8,4-4S13.6,13.1,11.4,13.1z M11.4,19.9
		c-1.6,0-2.8-1.3-2.8-2.8c0-1.6,1.3-2.8,2.8-2.8c1.6,0,2.8,1.3,2.8,2.8C14.3,18.6,13,19.9,11.4,19.9z"/>
	<path class="st0" d="M20.1,15.3h-2.5c-0.3,0-0.6,0.3-0.6,0.6c0,0.3,0.3,0.6,0.6,0.6h2.5c0.3,0,0.6-0.3,0.6-0.6
		C20.7,15.6,20.4,15.3,20.1,15.3z"/>
	<path class="st0" d="M25.8,15.3h-2.5c-0.3,0-0.6,0.3-0.6,0.6c0,0.3,0.3,0.6,0.6,0.6h2.5c0.3,0,0.6-0.3,0.6-0.6
		C26.4,15.6,26.1,15.3,25.8,15.3z"/>
	<path class="st0" d="M20.1,13.2h-2.5c-0.3,0-0.6,0.3-0.6,0.6c0,0.3,0.3,0.6,0.6,0.6h2.5c0.3,0,0.6-0.3,0.6-0.6
		C20.7,13.5,20.4,13.2,20.1,13.2z"/>
	<path class="st0" d="M25.8,13.2h-2.5c-0.3,0-0.6,0.3-0.6,0.6c0,0.3,0.3,0.6,0.6,0.6h2.5c0.3,0,0.6-0.3,0.6-0.6
		C26.4,13.5,26.1,13.2,25.8,13.2z"/>
	<path class="st0" d="M12.9,16.5H12v-0.9c0-0.3-0.3-0.6-0.6-0.6s-0.6,0.3-0.6,0.6v0.9H10c-0.3,0-0.6,0.3-0.6,0.6s0.3,0.6,0.6,0.6
		h0.9v0.9c0,0.3,0.3,0.6,0.6,0.6s0.6-0.3,0.6-0.6v-0.9h0.9c0.3,0,0.6-0.3,0.6-0.6S13.2,16.5,12.9,16.5z"/>
	<path class="st0" d="M31.6,13.1c-2.2,0-4,1.8-4,4s1.8,4,4,4s4-1.8,4-4S33.8,13.1,31.6,13.1z M31.6,19.9c-1.6,0-2.8-1.3-2.8-2.8
		c0-1.6,1.3-2.8,2.8-2.8s2.8,1.3,2.8,2.8C34.4,18.6,33.1,19.9,31.6,19.9z"/>
	<path class="st0" d="M39.8,25.7c-0.1-0.4-1.8-8.8-2.1-10.2C37.2,14,35,10.8,35,10.6c-0.1-0.1-0.2-0.2-0.4-0.2l-8.2-0.8c0,0,0,0,0,0
		c0-0.1-0.1-0.1-0.1-0.2c0,0,0,0,0,0C26.1,9.4,26,9.3,26,9.3c0,0,0,0-0.1,0c-0.1,0-0.1-0.1-0.2-0.1c0,0,0,0-0.1,0
		c-0.1,0-0.2,0-0.3,0h-3.9h-3.9c-0.1,0-0.2,0-0.3,0c0,0,0,0-0.1,0c-0.1,0-0.1,0-0.2,0.1c0,0,0,0-0.1,0c-0.1,0-0.1,0.1-0.2,0.2
		c0,0,0,0,0,0c-0.1,0.1-0.1,0.1-0.1,0.2c0,0,0,0,0,0l-8.2,0.8c-0.2,0-0.3,0.1-0.4,0.2C8,10.8,5.8,14,5.4,15.5
		C5,16.9,3.3,25.3,3.2,25.7c0,0.2-1,4.8,0.9,7c0.7,0.8,1.6,1.2,2.7,1.2c3.7,0,5.6-4.2,6.3-6.4c0.7,0.9,1.8,1.4,3,1.4
		c2.1,0,3.8-1.7,3.9-3.8H23c0.1,2.1,1.8,3.8,3.9,3.8c1.2,0,2.3-0.6,3-1.4c0.7,2.3,2.5,6.4,6.3,6.4c1.2,0,2.1-0.4,2.7-1.2
		C40.8,30.4,39.8,25.8,39.8,25.7z M16.1,27.8c-1.5,0-2.8-1.2-2.8-2.8c0-1.5,1.2-2.8,2.8-2.8c1.5,0,2.8,1.2,2.8,2.8
		C18.9,26.5,17.6,27.8,16.1,27.8z M26.9,27.8c-1.5,0-2.8-1.2-2.8-2.8c0-1.5,1.2-2.8,2.8-2.8c1.5,0,2.8,1.2,2.8,2.8
		C29.7,26.5,28.4,27.8,26.9,27.8z M38,32c-0.4,0.5-1,0.8-1.9,0.8c-3.9,0-5.3-6.1-5.5-6.9c0.1-0.3,0.1-0.6,0.1-0.9
		c0-2.2-1.8-3.9-3.9-3.9c-1.8,0-3.3,1.2-3.8,2.9h-3.2c-0.5-1.7-2-2.9-3.8-2.9c-2.2,0-3.9,1.8-3.9,3.9c0,0.3,0,0.6,0.1,0.9
		c-0.2,0.7-1.6,6.9-5.5,6.9C6,32.8,5.4,32.5,5,32c-1.5-1.8-0.6-6-0.6-6.1c0-0.1,1.8-8.7,2.1-10.1c0.3-1,1.7-3.2,2.4-4.2l8.3-0.8
		c0,0,0.1,0,0.1,0c0,0,0.1,0,0.1,0c0,0,0.1,0,0.1-0.1c0,0,0,0,0.1,0c0,0,0.1-0.1,0.1-0.1c0,0,0,0,0-0.1c0,0,0-0.1,0-0.2c0,0,0,0,0,0
		h3.8h3.8c0,0,0,0,0,0c0,0.1,0,0.1,0,0.2c0,0,0,0,0,0.1c0,0,0,0.1,0.1,0.1c0,0,0,0,0.1,0c0,0,0.1,0,0.1,0.1c0,0,0.1,0,0.1,0
		c0,0,0.1,0,0.1,0l8.3,0.8c0.7,1,2.1,3.2,2.4,4.2c0.4,1.4,2.1,10,2.1,10.1C38.7,25.9,39.5,30.1,38,32z"/>
	<path class="st0" d="M33,16.5c-0.3,0-0.6,0.3-0.6,0.6s0.3,0.6,0.6,0.6h0c0.3,0,0.6-0.3,0.6-0.6S33.3,16.5,33,16.5z"/>
	<path class="st0" d="M30.1,16.5c-0.3,0-0.6,0.3-0.6,0.6s0.3,0.6,0.6,0.6h0c0.3,0,0.6-0.3,0.6-0.6S30.5,16.5,30.1,16.5z"/>
	<path class="st0" d="M31.6,15.1c-0.3,0-0.6,0.3-0.6,0.6s0.3,0.6,0.6,0.6s0.6-0.3,0.6-0.6v0C32.1,15.3,31.9,15.1,31.6,15.1z"/>
	<path class="st0" d="M31.6,17.9c-0.3,0-0.6,0.3-0.6,0.6c0,0.3,0.3,0.6,0.6,0.6s0.6-0.3,0.6-0.6v0C32.1,18.2,31.9,17.9,31.6,17.9z"
		/>
</g>
</svg>
