<?xml version="1.0" encoding="utf-8"?>
<!-- Generator: Adobe Illustrator 24.0.0, SVG Export Plug-In . SVG Version: 6.00 Build 0)  -->
<svg version="1.1" id="Capa_1" xmlns="http://www.w3.org/2000/svg" xmlns:xlink="http://www.w3.org/1999/xlink" x="0px" y="0px"
	 viewBox="0 0 42 42" style="enable-background:new 0 0 42 42;" xml:space="preserve">
<style type="text/css">
	.st0{fill:#0071CE;}
</style>
<g>
	<g>
		<path class="st0" d="M25.3,31.5H9.7c-2.9,0-5.2-2.3-5.2-5.2V15c0-0.5,0.4-0.8,0.8-0.8h24.3c0.5,0,0.8,0.4,0.8,0.8v11.3
			C30.5,29.1,28.2,31.5,25.3,31.5z M6.2,15.8v10.5c0,1.9,1.6,3.5,3.5,3.5h15.7c1.9,0,3.5-1.6,3.5-3.5V15.8H6.2z"/>
	</g>
	<g>
		<path class="st0" d="M17.5,41c-1.9,0-3.5-1.5-3.5-3.5c0-1.7,2.4-4.4,2.8-4.9c0.3-0.4,0.9-0.4,1.3,0c0.5,0.5,2.8,3.2,2.8,4.9
			C21,39.5,19.4,41,17.5,41z M17.5,34.5c-0.9,1.2-1.8,2.5-1.8,3c0,1,0.8,1.8,1.8,1.8c1,0,1.8-0.8,1.8-1.8
			C19.3,37,18.5,35.7,17.5,34.5z"/>
	</g>
	<g>
		<path class="st0" d="M12.3,41c-1.9,0-3.5-1.5-3.5-3.5c0-1.7,2.4-4.4,2.8-4.9c0.2-0.2,0.4-0.3,0.6-0.3l0,0c0.2,0,0.5,0.1,0.6,0.3
			c0,0,1,1.2,1.8,2.4c0.3,0.4,0.1,0.9-0.3,1.2c-0.4,0.3-0.9,0.1-1.2-0.3c-0.3-0.5-0.7-1-1-1.4c-0.9,1.2-1.8,2.5-1.8,3
			c0,1,0.8,1.8,1.8,1.8c0.4,0,0.9-0.2,1.2-0.4c0.3-0.3,0.9-0.3,1.2,0.1c0.3,0.3,0.3,0.9-0.1,1.2C14,40.7,13.2,41,12.3,41z"/>
	</g>
	<g>
		<path class="st0" d="M22.7,41c-0.9,0-1.7-0.3-2.3-0.9c-0.3-0.3-0.4-0.8-0.1-1.2c0.3-0.3,0.8-0.4,1.2-0.1c0.3,0.3,0.7,0.4,1.2,0.4
			c1,0,1.8-0.8,1.8-1.8c0-0.6-0.8-1.9-1.8-3c-0.3,0.4-0.7,0.9-1,1.4c-0.3,0.4-0.8,0.5-1.2,0.3c-0.4-0.3-0.5-0.8-0.3-1.2
			c0.8-1.2,1.8-2.3,1.8-2.4c0.3-0.4,0.9-0.4,1.3,0c0.5,0.5,2.8,3.2,2.8,4.9C26.2,39.5,24.6,41,22.7,41z"/>
	</g>
	<g>
		<path class="st0" d="M5.4,20.2H2.7c-1.4,0-2.6-1.2-2.6-2.6V15c0-0.5,0.4-0.8,0.8-0.8h4.3c0.5,0,0.8,0.4,0.8,0.8
			c0,0.5-0.4,0.8-0.8,0.8H1.8v1.8c0,0.5,0.4,0.9,0.9,0.9h2.6c0.5,0,0.8,0.4,0.8,0.8C6.2,19.8,5.8,20.2,5.4,20.2z"/>
	</g>
	<g>
		<path class="st0" d="M32.3,20.2h-2.6c-0.5,0-0.8-0.4-0.8-0.8c0-0.5,0.4-0.8,0.8-0.8h2.6c0.5,0,0.9-0.4,0.9-0.9v-1.8h-3.5
			c-0.5,0-0.8-0.4-0.8-0.8c0-0.5,0.4-0.8,0.8-0.8H34c0.5,0,0.8,0.4,0.8,0.8v2.6C34.9,19,33.7,20.2,32.3,20.2z"/>
	</g>
	<g>
		<path class="st0" d="M2.6,13c-0.2,0-0.4-0.1-0.5-0.2c-0.2-0.1-0.3-0.3-0.3-0.6l-0.2-1.1c-0.1-0.7,0.2-1.3,0.8-1.7
			C2.6,9.4,2.8,9.2,3,9.1c2-1.3,5.7-3.7,11.2-4.6c5.5-0.9,9.7,0.4,12,1c0.3,0.1,0.5,0.2,0.8,0.2c0.6,0.2,1.1,0.7,1.2,1.4l0.2,1.1
			c0.1,0.5-0.2,0.9-0.7,1L2.8,13C2.7,13,2.7,13,2.6,13z M18,5.9c-1.1,0-2.3,0.1-3.5,0.3C9.3,6.9,5.9,9.2,4,10.5
			c-0.3,0.2-0.5,0.3-0.7,0.4l0,0.3l23.3-3.6l0-0.3c-0.2-0.1-0.5-0.1-0.8-0.2C24.1,6.6,21.4,5.9,18,5.9z M15.1,10.2L15.1,10.2
			L15.1,10.2z"/>
	</g>
	<g>
		<path class="st0" d="M11,6.6c-0.4,0-0.8-0.3-0.8-0.7L9.8,3.7c-0.2-1.4,1.9-2.3,3.9-2.6c1.9-0.3,4.2-0.1,4.5,1.3l0.3,2.2
			c0.1,0.5-0.2,0.9-0.7,1c-0.5,0.1-0.9-0.2-1-0.7l-0.3-2c-0.3-0.1-1.2-0.3-2.6-0.1c-1.3,0.2-2.2,0.6-2.4,0.8l0.3,2
			c0.1,0.5-0.2,0.9-0.7,1C11.1,6.6,11,6.6,11,6.6z"/>
	</g>
	<g>
		<path class="st0" d="M35.2,10.3c-0.3,0-0.5-0.1-0.7-0.4c-0.3-0.4-0.2-0.9,0.2-1.2c0.7-0.5,1.1-1.3,1.1-2.1c0-1.5-1.2-2.6-2.6-2.6
			c-1.2,0-2.3,0.9-2.6,2.1c-0.1,0.5-0.6,0.7-1,0.6c-0.5-0.1-0.7-0.6-0.6-1c0.4-2,2.2-3.4,4.2-3.4c2.4,0,4.3,1.9,4.3,4.3
			c0,1.4-0.7,2.7-1.8,3.5C35.5,10.2,35.4,10.3,35.2,10.3z"/>
	</g>
	<g>
		<path class="st0" d="M27.1,12.3c-0.3,0-0.6-0.2-0.8-0.5c-0.2-0.4,0-0.9,0.4-1.1l5.2-2.6c0.4-0.2,0.9,0,1.1,0.4
			c0.2,0.4,0,0.9-0.4,1.1l-5.2,2.6C27.3,12.3,27.2,12.3,27.1,12.3z"/>
	</g>
	<g>
		<path class="st0" d="M35.8,13.2h-4.3c-0.5,0-0.8-0.4-0.8-0.8c0-0.5,0.4-0.8,0.8-0.8h4.3c0.5,0,0.8,0.4,0.8,0.8
			C36.6,12.8,36.2,13.2,35.8,13.2z"/>
	</g>
	<g>
		<path class="st0" d="M38,13.2c-0.5,0-0.8-0.4-0.8-0.8c0-0.5,0.4-0.8,0.8-0.8c1.2,0,2.2-1,2.2-2.2c0-1.2-1-2.2-2.2-2.2
			c-0.3,0-0.6,0.1-0.9,0.2c-0.4,0.2-0.9,0-1.1-0.4c-0.2-0.4,0-0.9,0.4-1.1c0.5-0.2,1.1-0.4,1.7-0.4c2.1,0,3.9,1.7,3.9,3.9
			S40.1,13.2,38,13.2z"/>
	</g>
	<g>
		<path class="st0" d="M38,18.4c-0.6,0-1.1-0.1-1.7-0.4c-0.4-0.2-0.6-0.7-0.4-1.1c0.2-0.4,0.7-0.6,1.1-0.4c0.3,0.1,0.6,0.2,0.9,0.2
			c1.2,0,2.2-1,2.2-2.2c0-0.8-0.4-1.5-1.1-1.9c-0.4-0.2-0.5-0.8-0.3-1.2c0.2-0.4,0.8-0.5,1.2-0.3c1.2,0.7,1.9,2,1.9,3.3
			C41.8,16.7,40.1,18.4,38,18.4z"/>
	</g>
</g>
</svg>
