<?xml version="1.0" encoding="utf-8"?>
<!-- Generator: Adobe Illustrator 23.0.6, SVG Export Plug-In . SVG Version: 6.00 Build 0)  -->
<svg version="1.1" id="Capa_1" xmlns="http://www.w3.org/2000/svg" xmlns:xlink="http://www.w3.org/1999/xlink" x="0px" y="0px"
	 viewBox="0 0 42 42" style="enable-background:new 0 0 42 42;" xml:space="preserve">
<style type="text/css">
	.st0{fill:#0071CE;}
</style>
<g>
	<path class="st0" d="M30.3,38.8H11.7c-0.9,0-1.6-0.8-1.6-1.8V5c0-1,0.7-1.8,1.6-1.8h18.6c0.9,0,1.6,0.8,1.6,1.8V37
		C31.9,38,31.2,38.8,30.3,38.8z M11.7,4.7c0,0-0.1,0.1-0.1,0.2V37c0,0.2,0.1,0.2,0.1,0.2h18.6c0,0,0.1-0.1,0.1-0.2V5
		c0-0.2-0.1-0.2-0.1-0.2H11.7z"/>
	<path class="st0" d="M31.2,33.1H10.8c-0.4,0-0.8-0.3-0.8-0.8V7.7c0-0.4,0.3-0.8,0.8-0.8h20.4c0.4,0,0.8,0.3,0.8,0.8v24.7
		C31.9,32.8,31.6,33.1,31.2,33.1z M11.6,31.6h18.9V8.4H11.6V31.6z"/>
	<path class="st0" d="M28,6.6c-0.4,0-0.8-0.3-0.8-0.8s0.3-0.8,0.8-0.8s0.8,0.3,0.8,0.7v0C28.8,6.3,28.4,6.6,28,6.6z"/>
	<path class="st0" d="M25.5,6.6c-0.4,0-0.8-0.3-0.8-0.8s0.3-0.8,0.8-0.8c0.4,0,0.8,0.3,0.8,0.7v0C26.3,6.3,26,6.6,25.5,6.6z"/>
	<path class="st0" d="M22.3,35.9h-2.6c-0.4,0-0.8-0.3-0.8-0.8s0.3-0.8,0.8-0.8h2.6c0.4,0,0.8,0.3,0.8,0.8S22.7,35.9,22.3,35.9z"/>
</g>
</svg>
