<?xml version="1.0" encoding="utf-8"?>
<!-- Generator: Adobe Illustrator 23.0.6, SVG Export Plug-In . SVG Version: 6.00 Build 0)  -->
<svg version="1.1" id="Capa_1" xmlns="http://www.w3.org/2000/svg" xmlns:xlink="http://www.w3.org/1999/xlink" x="0px" y="0px"
	 viewBox="0 0 42 42" style="enable-background:new 0 0 42 42;" xml:space="preserve">
<style type="text/css">
	.st0{fill:#0071ce;}
</style>
<g>
	<g>
		<g>
			<g>
				<g>
					<path class="st0" d="M1.6,32.2V6.8h38.8v25.4H1.6z M2.3,7.2C2.1,7.2,2,7.3,2,7.5v24c0,0.1,0.1,0.2,0.2,0.2h37.4
						c0.1,0,0.2-0.1,0.2-0.2v-24c0-0.1-0.1-0.2-0.2-0.2H2.3z"/>
					<path class="st0" d="M40.1,7.1v0.2c0-0.1-0.1-0.1-0.2-0.2H40.1 M2,7.1C2,7.1,1.9,7.2,1.9,7.2V7.1H2 M1.9,31.8
						C1.9,31.9,2,31.9,2,32H1.9V31.8 M40.1,31.8V32H40C40,31.9,40.1,31.9,40.1,31.8 M40.6,6.6H1.4v25.9h39.3V6.6L40.6,6.6z
						 M2.3,31.5v-24h37.4v24H2.3L2.3,31.5z"/>
				</g>
			</g>
			<g>
				<g>
					<path class="st0" d="M4.3,29.5V9.5h33.4v20.1H4.3z M5,9.9c-0.1,0-0.2,0.1-0.2,0.2v18.7c0,0.1,0.1,0.2,0.2,0.2H37
						c0.1,0,0.2-0.1,0.2-0.2V10.2c0-0.1-0.1-0.2-0.2-0.2H5z"/>
					<path class="st0" d="M37.5,9.7v0.2c0-0.1-0.1-0.1-0.2-0.2H37.5 M4.7,9.7c-0.1,0-0.1,0.1-0.2,0.2V9.7H4.7 M37.5,29.1v0.2h-0.2
						C37.4,29.2,37.4,29.2,37.5,29.1 M4.5,29.1c0,0.1,0.1,0.1,0.2,0.2H4.5V29.1 M38,9.2H4v20.6H38V9.2L38,9.2z M5,28.9V10.2H37v18.7
						H5L5,28.9z"/>
				</g>
			</g>
			<g>
				<g>
					<rect x="11.8" y="34.8" class="st0" width="18.4" height="0.4"/>
					<polygon class="st0" points="30.5,34.5 11.5,34.5 11.5,35.4 30.5,35.4 30.5,34.5 					"/>
				</g>
			</g>
			<g>
				<g>
					<rect x="20.8" y="31.8" class="st0" width="0.4" height="3.4"/>
					<polygon class="st0" points="21.5,31.5 20.5,31.5 20.5,35.4 21.5,35.4 21.5,31.5 					"/>
				</g>
			</g>
		</g>
		<g>
			<g>
				<rect x="6.9" y="13.4" transform="matrix(0.6803 -0.733 0.733 0.6803 -7.3573 10.3609)" class="st0" width="2.7" height="0.4"/>
				<polygon class="st0" points="8.9,12.1 6.8,14.5 7.5,15.1 9.6,12.8 8.9,12.1 				"/>
			</g>
		</g>
		<g>
			<g>
				<rect x="7.2" y="15.4" transform="matrix(0.681 -0.7323 0.7323 0.681 -8.2433 12.3357)" class="st0" width="5.7" height="0.4"/>
				<polygon class="st0" points="11.8,13 7.6,17.6 8.3,18.2 12.5,13.7 11.8,13 				"/>
			</g>
		</g>
	</g>
</g>
</svg>
