<?xml version="1.0" encoding="utf-8"?>
<!-- Generator: Adobe Illustrator 23.0.6, SVG Export Plug-In . SVG Version: 6.00 Build 0)  -->
<svg version="1.1" id="Capa_1" xmlns="http://www.w3.org/2000/svg" xmlns:xlink="http://www.w3.org/1999/xlink" x="0px" y="0px"
	 viewBox="0 0 42 42" style="enable-background:new 0 0 42 42;" xml:space="preserve">
<style type="text/css">
	.st0{fill:#0071ce;}
</style>
<g>
	<g>
		<g>
			<path class="st0" d="M8.3,39.6c-1,0-1.8-0.8-1.8-1.8V4.2c0-1,0.8-1.8,1.8-1.8h25.4c1,0,1.8,0.8,1.8,1.8v33.6c0,1-0.8,1.8-1.8,1.8
				H8.3z M8.3,2.9C7.6,2.9,7,3.5,7,4.2v33.6c0,0.7,0.6,1.4,1.4,1.4h25.4c0.7,0,1.4-0.6,1.4-1.4V4.2c0-0.7-0.6-1.4-1.4-1.4H8.3z"/>
			<path class="st0" d="M33.7,2.2H8.3c-1.1,0-2,0.9-2,2v33.6c0,1.1,0.9,2,2,2h25.4c1.1,0,2-0.9,2-2V4.2C35.7,3.1,34.8,2.2,33.7,2.2
				L33.7,2.2z M8.3,38.9c-0.6,0-1.1-0.5-1.1-1.1V4.2c0-0.6,0.5-1.1,1.1-1.1h25.4c0.6,0,1.1,0.5,1.1,1.1v33.6c0,0.6-0.5,1.1-1.1,1.1
				H8.3L8.3,38.9z"/>
		</g>
	</g>
	<g>
		<g>
			<path class="st0" d="M6.7,10.4c-0.1,0-0.2-0.1-0.2-0.2S6.6,10,6.7,10h28.5c0.1,0,0.2,0.1,0.2,0.2s-0.1,0.2-0.2,0.2H6.7z"/>
			<path class="st0" d="M35.3,9.7H6.7c-0.3,0-0.5,0.2-0.5,0.5c0,0.3,0.2,0.5,0.5,0.5h28.5c0.3,0,0.5-0.2,0.5-0.5
				C35.7,9.9,35.5,9.7,35.3,9.7L35.3,9.7z"/>
		</g>
	</g>
	<g>
		<g>
			<g>
				<path class="st0" d="M30.5,8.4c-1.1,0-2-0.9-2-2s0.9-2,2-2c1.1,0,2,0.9,2,2S31.6,8.4,30.5,8.4z M30.5,4.8
					c-0.9,0-1.6,0.7-1.6,1.6c0,0.9,0.7,1.6,1.6,1.6c0.9,0,1.6-0.7,1.6-1.6C32.1,5.5,31.4,4.8,30.5,4.8z"/>
				<path class="st0" d="M30.5,4.2c-1.2,0-2.3,1-2.3,2.3s1,2.3,2.3,2.3c1.2,0,2.3-1,2.3-2.3S31.8,4.2,30.5,4.2L30.5,4.2z M30.5,7.7
					c-0.7,0-1.3-0.6-1.3-1.3c0-0.7,0.6-1.3,1.3-1.3c0.7,0,1.3,0.6,1.3,1.3C31.8,7.1,31.2,7.7,30.5,7.7L30.5,7.7z"/>
			</g>
		</g>
		<g>
			<g>
				<path class="st0" d="M25.5,8.4c-1.1,0-2-0.9-2-2s0.9-2,2-2s2,0.9,2,2S26.6,8.4,25.5,8.4z M25.5,4.8c-0.9,0-1.6,0.7-1.6,1.6
					C24,7.3,24.7,8,25.5,8s1.6-0.7,1.6-1.6C27.1,5.5,26.4,4.8,25.5,4.8z"/>
				<path class="st0" d="M25.5,4.2c-1.2,0-2.3,1-2.3,2.3s1,2.3,2.3,2.3c1.2,0,2.3-1,2.3-2.3S26.8,4.2,25.5,4.2L25.5,4.2z M25.5,7.7
					c-0.7,0-1.3-0.6-1.3-1.3c0-0.7,0.6-1.3,1.3-1.3c0.7,0,1.3,0.6,1.3,1.3C26.9,7.1,26.3,7.7,25.5,7.7L25.5,7.7z"/>
			</g>
		</g>
		<g>
			<g>
				<path class="st0" d="M20.6,8.4c-1.1,0-2-0.9-2-2s0.9-2,2-2c1.1,0,2,0.9,2,2S21.7,8.4,20.6,8.4z M20.6,4.8
					c-0.9,0-1.6,0.7-1.6,1.6C19,7.3,19.7,8,20.6,8c0.9,0,1.6-0.7,1.6-1.6C22.1,5.5,21.4,4.8,20.6,4.8z"/>
				<path class="st0" d="M20.6,4.2c-1.2,0-2.3,1-2.3,2.3s1,2.3,2.3,2.3c1.2,0,2.3-1,2.3-2.3S21.8,4.2,20.6,4.2L20.6,4.2z M20.6,7.7
					c-0.7,0-1.3-0.6-1.3-1.3c0-0.7,0.6-1.3,1.3-1.3c0.7,0,1.3,0.6,1.3,1.3C21.9,7.1,21.3,7.7,20.6,7.7L20.6,7.7z"/>
			</g>
		</g>
	</g>
	<g>
		<g>
			<g>
				<path class="st0" d="M9.7,5.6c-0.1,0-0.2-0.1-0.2-0.2s0.1-0.2,0.2-0.2h4.4c0.1,0,0.2,0.1,0.2,0.2s-0.1,0.2-0.2,0.2H9.7z"/>
				<path class="st0" d="M14.1,4.9H9.7c-0.3,0-0.5,0.2-0.5,0.5c0,0.3,0.2,0.5,0.5,0.5h4.4c0.3,0,0.5-0.2,0.5-0.5
					C14.6,5.1,14.4,4.9,14.1,4.9L14.1,4.9z"/>
			</g>
		</g>
		<g>
			<g>
				<path class="st0" d="M9.7,7.7c-0.1,0-0.2-0.1-0.2-0.2s0.1-0.2,0.2-0.2h4.4c0.1,0,0.2,0.1,0.2,0.2s-0.1,0.2-0.2,0.2H9.7z"/>
				<path class="st0" d="M14.1,7H9.7C9.4,7,9.2,7.2,9.2,7.5c0,0.3,0.2,0.5,0.5,0.5h4.4c0.3,0,0.5-0.2,0.5-0.5
					C14.6,7.2,14.4,7,14.1,7L14.1,7z"/>
			</g>
		</g>
	</g>
	<g>
		<g>
			<g>
				<path class="st0" d="M28.5,22.6c-0.1,0-0.2-0.1-0.2-0.2s0.1-0.2,0.2-0.2h2.4c0.1,0,0.2,0.1,0.2,0.2s-0.1,0.2-0.2,0.2H28.5z"/>
				<path class="st0" d="M30.9,21.9h-2.4c-0.3,0-0.5,0.2-0.5,0.5c0,0.3,0.2,0.5,0.5,0.5h2.4c0.3,0,0.5-0.2,0.5-0.5
					C31.4,22.2,31.1,21.9,30.9,21.9L30.9,21.9z"/>
			</g>
		</g>
		<g>
			<g>
				<path class="st0" d="M28.5,24.4c-0.1,0-0.2-0.1-0.2-0.2c0-0.1,0.1-0.2,0.2-0.2h2.4c0.1,0,0.2,0.1,0.2,0.2c0,0.1-0.1,0.2-0.2,0.2
					H28.5z"/>
				<path class="st0" d="M30.9,23.7h-2.4c-0.3,0-0.5,0.2-0.5,0.5c0,0.3,0.2,0.5,0.5,0.5h2.4c0.3,0,0.5-0.2,0.5-0.5
					C31.4,23.9,31.1,23.7,30.9,23.7L30.9,23.7z"/>
			</g>
		</g>
	</g>
	<g>
		<g>
			<g>
				<path class="st0" d="M9.7,34.9c-0.1,0-0.2-0.1-0.2-0.2s0.1-0.2,0.2-0.2h3.2c0.1,0,0.2,0.1,0.2,0.2s-0.1,0.2-0.2,0.2H9.7z"/>
				<path class="st0" d="M12.9,34.2H9.7c-0.3,0-0.5,0.2-0.5,0.5c0,0.3,0.2,0.5,0.5,0.5h3.2c0.3,0,0.5-0.2,0.5-0.5
					C13.3,34.4,13.1,34.2,12.9,34.2L12.9,34.2z"/>
			</g>
		</g>
		<g>
			<g>
				<path class="st0" d="M9.7,36.1c-0.1,0-0.2-0.1-0.2-0.2c0-0.1,0.1-0.2,0.2-0.2h3.2c0.1,0,0.2,0.1,0.2,0.2c0,0.1-0.1,0.2-0.2,0.2
					H9.7z"/>
				<path class="st0" d="M12.9,35.4H9.7c-0.3,0-0.5,0.2-0.5,0.5c0,0.3,0.2,0.5,0.5,0.5h3.2c0.3,0,0.5-0.2,0.5-0.5
					C13.3,35.6,13.1,35.4,12.9,35.4L12.9,35.4z"/>
			</g>
		</g>
	</g>
	<g>
		<g>
			<path class="st0" d="M20.9,29.6c-3.5,0-6.3-2.8-6.3-6.3s2.8-6.3,6.3-6.3s6.3,2.8,6.3,6.3S24.4,29.6,20.9,29.6z M20.9,17.4
				c-3.3,0-5.9,2.6-5.9,5.9c0,3.3,2.6,5.9,5.9,5.9s5.9-2.6,5.9-5.9C26.8,20,24.2,17.4,20.9,17.4z"/>
			<path class="st0" d="M20.9,16.7c-3.6,0-6.6,3-6.6,6.6c0,3.6,3,6.6,6.6,6.6c3.6,0,6.6-3,6.6-6.6C27.5,19.7,24.6,16.7,20.9,16.7
				L20.9,16.7z M20.9,28.9c-3.1,0-5.6-2.5-5.6-5.6c0-3.1,2.5-5.6,5.6-5.6s5.6,2.5,5.6,5.6C26.6,26.4,24.1,28.9,20.9,28.9L20.9,28.9z
				"/>
		</g>
	</g>
	<g>
		<g>
			<path class="st0" d="M20.9,32.3c-4.9,0-9-4-9-9s4-9,9-9c4.9,0,9,4,9,9S25.9,32.3,20.9,32.3z M20.9,14.8c-4.7,0-8.5,3.8-8.5,8.5
				c0,4.7,3.8,8.5,8.5,8.5s8.5-3.8,8.5-8.5C29.5,18.6,25.6,14.8,20.9,14.8z"/>
			<path class="st0" d="M20.9,14.1c-5.1,0-9.2,4.1-9.2,9.2c0,5.1,4.1,9.2,9.2,9.2s9.2-4.1,9.2-9.2C30.1,18.2,26,14.1,20.9,14.1
				L20.9,14.1z M20.9,31.6c-4.6,0-8.3-3.7-8.3-8.3c0-4.6,3.7-8.3,8.3-8.3c4.6,0,8.3,3.7,8.3,8.3C29.2,27.9,25.5,31.6,20.9,31.6
				L20.9,31.6z"/>
		</g>
	</g>
</g>
</svg>
